<?xml version="1.0" encoding="UTF-8" standalone="no"?>
<!DOCTYPE svg PUBLIC "-//W3C//DTD SVG 1.1//EN" "http://www.w3.org/Graphics/SVG/1.1/DTD/svg11.dtd">
<svg width="100%" height="100%" viewBox="0 0 3000 3000" version="1.1" xmlns="http://www.w3.org/2000/svg" xmlns:xlink="http://www.w3.org/1999/xlink" xml:space="preserve" xmlns:serif="http://www.serif.com/" style="fill-rule:evenodd;clip-rule:evenodd;stroke-linejoin:round;stroke-miterlimit:2;">
    <g transform="matrix(2.1322,0,0,2.1322,1500,1500)">
        <g id="Mozajka.svg" transform="matrix(1,0,0,1,-703.5,-703.5)">
            <clipPath id="_clip1">
                <rect x="0" y="0" width="1407" height="1407"/>
            </clipPath>
            <g clip-path="url(#_clip1)">
                <g transform="matrix(1.8249,0,0,1.8249,-1556.64,-2737.35)">
                    <g id="Logo">
                        <g transform="matrix(0.547974,0,0,0.547974,416.538,1063.54)">
                            <path d="M1389.59,1610.41L796.5,1610.41L796.5,2203.5L1389.59,2203.5L1389.59,1610.41ZM1229.4,1770.6L956.692,1770.6L956.692,2043.31L1229.4,2043.31L1229.4,1770.6Z"/>
                        </g>
                        <g transform="matrix(0.547974,0,0,0.547974,416.538,1063.54)">
                            <path d="M2203.5,796.5L1229.4,796.5L1229.4,1770.6L2203.5,1770.6L2203.5,796.5ZM1940.4,1059.6L1492.5,1059.6L1492.5,1507.5L1940.4,1507.5L1940.4,1059.6Z"/>
                        </g>
                    </g>
                </g>
            </g>
        </g>
        <g id="Mozajka.svg1" serif:id="Mozajka.svg">
        </g>
    </g>
</svg>
